<mxfile host="Electron" agent="Mozilla/5.0 (Windows NT 10.0; Win64; x64) AppleWebKit/537.36 (KHTML, like Gecko) draw.io/26.0.16 Chrome/132.0.6834.196 Electron/34.2.0 Safari/537.36" version="26.0.16">
  <diagram id="_KvNBjtN0LgoV4jBBkdm" name="festival_sanremo_v2">
    <mxGraphModel dx="819" dy="1305" grid="1" gridSize="10" guides="1" tooltips="1" connect="1" arrows="1" fold="1" page="1" pageScale="1" pageWidth="1169" pageHeight="827" math="0" shadow="0">
      <root>
        <mxCell id="0" />
        <mxCell id="1" parent="0" />
        <mxCell id="FfVXFCaMh1slwa6Uivpq-3" value="ARTISTI" style="rounded=0;whiteSpace=wrap;html=1;" parent="1" vertex="1">
          <mxGeometry x="120" y="-137" width="120" height="40" as="geometry" />
        </mxCell>
        <mxCell id="prDqPZr-P2w_M1zw6b7I-26" style="edgeStyle=orthogonalEdgeStyle;rounded=0;orthogonalLoop=1;jettySize=auto;html=1;exitX=1;exitY=0.5;exitDx=0;exitDy=0;endArrow=oval;endFill=0;entryX=0;entryY=0.5;entryDx=0;entryDy=0;" parent="1" source="FfVXFCaMh1slwa6Uivpq-3" target="FfVXFCaMh1slwa6Uivpq-7" edge="1">
          <mxGeometry relative="1" as="geometry" />
        </mxCell>
        <mxCell id="FfVXFCaMh1slwa6Uivpq-7" value="cognome (0,1)" style="text;html=1;align=left;verticalAlign=middle;whiteSpace=wrap;rounded=0;spacingLeft=4;" parent="1" vertex="1">
          <mxGeometry x="280" y="-223" width="110" height="30" as="geometry" />
        </mxCell>
        <mxCell id="prDqPZr-P2w_M1zw6b7I-14" style="edgeStyle=orthogonalEdgeStyle;rounded=0;orthogonalLoop=1;jettySize=auto;html=1;exitX=1;exitY=0.5;exitDx=0;exitDy=0;entryX=0;entryY=0.5;entryDx=0;entryDy=0;align=left;spacingLeft=4;endArrow=oval;endFill=0;" parent="1" source="FfVXFCaMh1slwa6Uivpq-3" target="FfVXFCaMh1slwa6Uivpq-13" edge="1">
          <mxGeometry relative="1" as="geometry" />
        </mxCell>
        <mxCell id="FfVXFCaMh1slwa6Uivpq-13" value="luogo di nascita (0,1)" style="text;html=1;align=left;verticalAlign=middle;whiteSpace=wrap;rounded=0;spacingLeft=4;" parent="1" vertex="1">
          <mxGeometry x="280" y="-187" width="140" height="30" as="geometry" />
        </mxCell>
        <mxCell id="prDqPZr-P2w_M1zw6b7I-13" style="edgeStyle=orthogonalEdgeStyle;rounded=0;orthogonalLoop=1;jettySize=auto;html=1;exitX=1;exitY=0.5;exitDx=0;exitDy=0;endArrow=oval;endFill=0;entryX=0;entryY=0.5;entryDx=0;entryDy=0;" parent="1" source="FfVXFCaMh1slwa6Uivpq-3" target="FfVXFCaMh1slwa6Uivpq-17" edge="1">
          <mxGeometry relative="1" as="geometry" />
        </mxCell>
        <mxCell id="FfVXFCaMh1slwa6Uivpq-17" value="data nascita (0,1)" style="text;html=1;align=left;verticalAlign=middle;whiteSpace=wrap;rounded=0;spacingLeft=4;" parent="1" vertex="1">
          <mxGeometry x="280" y="-204" width="110" height="30" as="geometry" />
        </mxCell>
        <mxCell id="FfVXFCaMh1slwa6Uivpq-18" style="edgeStyle=orthogonalEdgeStyle;rounded=0;orthogonalLoop=1;jettySize=auto;html=1;endArrow=none;startFill=0;" parent="1" source="FfVXFCaMh1slwa6Uivpq-22" target="FfVXFCaMh1slwa6Uivpq-35" edge="1">
          <mxGeometry relative="1" as="geometry" />
        </mxCell>
        <mxCell id="FfVXFCaMh1slwa6Uivpq-19" value="(1,n)" style="edgeLabel;html=1;align=center;verticalAlign=middle;resizable=0;points=[];" parent="FfVXFCaMh1slwa6Uivpq-18" vertex="1" connectable="0">
          <mxGeometry x="0.0155" y="2" relative="1" as="geometry">
            <mxPoint as="offset" />
          </mxGeometry>
        </mxCell>
        <mxCell id="prDqPZr-P2w_M1zw6b7I-30" style="edgeStyle=orthogonalEdgeStyle;rounded=0;orthogonalLoop=1;jettySize=auto;html=1;entryX=0.5;entryY=1;entryDx=0;entryDy=0;endArrow=none;startFill=0;exitX=0.25;exitY=0;exitDx=0;exitDy=0;" parent="1" source="FfVXFCaMh1slwa6Uivpq-22" edge="1">
          <mxGeometry relative="1" as="geometry">
            <mxPoint x="430" y="233" as="sourcePoint" />
            <mxPoint x="360" y="133" as="targetPoint" />
          </mxGeometry>
        </mxCell>
        <mxCell id="prDqPZr-P2w_M1zw6b7I-46" value="(1,n)" style="edgeLabel;html=1;align=center;verticalAlign=middle;resizable=0;points=[];" parent="prDqPZr-P2w_M1zw6b7I-30" vertex="1" connectable="0">
          <mxGeometry x="-0.6602" y="1" relative="1" as="geometry">
            <mxPoint as="offset" />
          </mxGeometry>
        </mxCell>
        <mxCell id="FfVXFCaMh1slwa6Uivpq-22" value="BRANI" style="rounded=0;whiteSpace=wrap;html=1;" parent="1" vertex="1">
          <mxGeometry x="370" y="243" width="120" height="40" as="geometry" />
        </mxCell>
        <mxCell id="FfVXFCaMh1slwa6Uivpq-23" style="edgeStyle=orthogonalEdgeStyle;rounded=0;orthogonalLoop=1;jettySize=auto;html=1;exitX=0;exitY=0.5;exitDx=0;exitDy=0;endArrow=oval;endFill=0;startFill=0;entryX=1;entryY=0.5;entryDx=0;entryDy=0;" parent="1" source="FfVXFCaMh1slwa6Uivpq-22" target="FfVXFCaMh1slwa6Uivpq-24" edge="1">
          <mxGeometry relative="1" as="geometry" />
        </mxCell>
        <mxCell id="FfVXFCaMh1slwa6Uivpq-24" value="titolo" style="text;html=1;align=right;verticalAlign=middle;whiteSpace=wrap;rounded=0;spacingLeft=4;spacingRight=4;" parent="1" vertex="1">
          <mxGeometry x="265" y="173" width="60" height="30" as="geometry" />
        </mxCell>
        <mxCell id="FfVXFCaMh1slwa6Uivpq-25" style="edgeStyle=orthogonalEdgeStyle;rounded=0;orthogonalLoop=1;jettySize=auto;html=1;exitX=0;exitY=0.5;exitDx=0;exitDy=0;endArrow=oval;endFill=0;entryX=1;entryY=0.5;entryDx=0;entryDy=0;" parent="1" source="FfVXFCaMh1slwa6Uivpq-22" target="FfVXFCaMh1slwa6Uivpq-26" edge="1">
          <mxGeometry relative="1" as="geometry" />
        </mxCell>
        <mxCell id="FfVXFCaMh1slwa6Uivpq-26" value="durata" style="text;html=1;align=left;verticalAlign=middle;whiteSpace=wrap;rounded=0;spacingLeft=4;" parent="1" vertex="1">
          <mxGeometry x="270" y="248" width="50" height="30" as="geometry" />
        </mxCell>
        <mxCell id="FfVXFCaMh1slwa6Uivpq-27" style="edgeStyle=orthogonalEdgeStyle;rounded=0;orthogonalLoop=1;jettySize=auto;html=1;exitX=0;exitY=0.5;exitDx=0;exitDy=0;entryX=1;entryY=0.5;entryDx=0;entryDy=0;endArrow=oval;endFill=0;" parent="1" source="FfVXFCaMh1slwa6Uivpq-22" target="FfVXFCaMh1slwa6Uivpq-28" edge="1">
          <mxGeometry relative="1" as="geometry" />
        </mxCell>
        <mxCell id="FfVXFCaMh1slwa6Uivpq-28" value="genere musicale" style="text;html=1;align=right;verticalAlign=middle;whiteSpace=wrap;rounded=0;spacingLeft=4;spacingRight=4;" parent="1" vertex="1">
          <mxGeometry x="195" y="223" width="130" height="30" as="geometry" />
        </mxCell>
        <mxCell id="FfVXFCaMh1slwa6Uivpq-29" style="edgeStyle=orthogonalEdgeStyle;rounded=0;orthogonalLoop=1;jettySize=auto;html=1;entryX=0;entryY=0.5;entryDx=0;entryDy=0;endArrow=none;startFill=0;" parent="1" source="FfVXFCaMh1slwa6Uivpq-32" target="FfVXFCaMh1slwa6Uivpq-42" edge="1">
          <mxGeometry relative="1" as="geometry" />
        </mxCell>
        <mxCell id="FfVXFCaMh1slwa6Uivpq-30" value="(1,n)" style="edgeLabel;html=1;align=center;verticalAlign=middle;resizable=0;points=[];" parent="FfVXFCaMh1slwa6Uivpq-29" vertex="1" connectable="0">
          <mxGeometry x="-0.0612" y="-2" relative="1" as="geometry">
            <mxPoint as="offset" />
          </mxGeometry>
        </mxCell>
        <mxCell id="FfVXFCaMh1slwa6Uivpq-32" value="ESIBIZIONI" style="rounded=0;whiteSpace=wrap;html=1;" parent="1" vertex="1">
          <mxGeometry x="370" y="653" width="120" height="40" as="geometry" />
        </mxCell>
        <mxCell id="FfVXFCaMh1slwa6Uivpq-33" style="edgeStyle=orthogonalEdgeStyle;rounded=0;orthogonalLoop=1;jettySize=auto;html=1;exitX=0.5;exitY=1;exitDx=0;exitDy=0;entryX=0.5;entryY=0;entryDx=0;entryDy=0;endArrow=none;startFill=0;" parent="1" source="FfVXFCaMh1slwa6Uivpq-35" target="FfVXFCaMh1slwa6Uivpq-32" edge="1">
          <mxGeometry relative="1" as="geometry" />
        </mxCell>
        <mxCell id="2gdoB9V7-eAWrZrWWVSR-40" value="(1,1)" style="edgeLabel;html=1;align=center;verticalAlign=middle;resizable=0;points=[];" parent="FfVXFCaMh1slwa6Uivpq-33" vertex="1" connectable="0">
          <mxGeometry x="-0.0126" y="-2" relative="1" as="geometry">
            <mxPoint x="2" as="offset" />
          </mxGeometry>
        </mxCell>
        <mxCell id="FfVXFCaMh1slwa6Uivpq-35" value="vengono eseguiti" style="rhombus;whiteSpace=wrap;html=1;" parent="1" vertex="1">
          <mxGeometry x="390" y="463" width="80" height="80" as="geometry" />
        </mxCell>
        <mxCell id="FfVXFCaMh1slwa6Uivpq-36" style="edgeStyle=orthogonalEdgeStyle;rounded=0;orthogonalLoop=1;jettySize=auto;html=1;exitX=0.5;exitY=1;exitDx=0;exitDy=0;entryX=0;entryY=0.5;entryDx=0;entryDy=0;endArrow=none;startFill=0;" parent="1" source="FfVXFCaMh1slwa6Uivpq-38" target="FfVXFCaMh1slwa6Uivpq-32" edge="1">
          <mxGeometry relative="1" as="geometry" />
        </mxCell>
        <mxCell id="FfVXFCaMh1slwa6Uivpq-37" value="(1,1)" style="edgeLabel;html=1;align=center;verticalAlign=middle;resizable=0;points=[];" parent="FfVXFCaMh1slwa6Uivpq-36" vertex="1" connectable="0">
          <mxGeometry x="0.5049" y="-2" relative="1" as="geometry">
            <mxPoint x="-11" y="-2" as="offset" />
          </mxGeometry>
        </mxCell>
        <mxCell id="prDqPZr-P2w_M1zw6b7I-20" style="edgeStyle=orthogonalEdgeStyle;rounded=0;orthogonalLoop=1;jettySize=auto;html=1;entryX=0;entryY=0.5;entryDx=0;entryDy=0;endArrow=none;startFill=0;exitX=0.5;exitY=0;exitDx=0;exitDy=0;" parent="1" source="FfVXFCaMh1slwa6Uivpq-38" target="FfVXFCaMh1slwa6Uivpq-3" edge="1">
          <mxGeometry relative="1" as="geometry">
            <mxPoint x="100" y="93" as="targetPoint" />
            <Array as="points">
              <mxPoint x="100" y="-120" />
              <mxPoint x="120" y="-120" />
            </Array>
          </mxGeometry>
        </mxCell>
        <mxCell id="prDqPZr-P2w_M1zw6b7I-47" value="(1,n)" style="edgeLabel;html=1;align=center;verticalAlign=middle;resizable=0;points=[];" parent="prDqPZr-P2w_M1zw6b7I-20" vertex="1" connectable="0">
          <mxGeometry x="0.0238" y="1" relative="1" as="geometry">
            <mxPoint as="offset" />
          </mxGeometry>
        </mxCell>
        <mxCell id="FfVXFCaMh1slwa6Uivpq-38" value="si esibiscono" style="rhombus;whiteSpace=wrap;html=1;" parent="1" vertex="1">
          <mxGeometry x="60" y="463" width="80" height="80" as="geometry" />
        </mxCell>
        <mxCell id="FfVXFCaMh1slwa6Uivpq-40" style="edgeStyle=orthogonalEdgeStyle;rounded=0;orthogonalLoop=1;jettySize=auto;html=1;entryX=0;entryY=0.5;entryDx=0;entryDy=0;endArrow=none;startFill=0;" parent="1" source="FfVXFCaMh1slwa6Uivpq-42" target="FfVXFCaMh1slwa6Uivpq-43" edge="1">
          <mxGeometry relative="1" as="geometry" />
        </mxCell>
        <mxCell id="FfVXFCaMh1slwa6Uivpq-41" value="(1,1)" style="edgeLabel;html=1;align=center;verticalAlign=middle;resizable=0;points=[];" parent="FfVXFCaMh1slwa6Uivpq-40" vertex="1" connectable="0">
          <mxGeometry x="-0.2421" y="-1" relative="1" as="geometry">
            <mxPoint as="offset" />
          </mxGeometry>
        </mxCell>
        <mxCell id="FfVXFCaMh1slwa6Uivpq-42" value="sono&lt;div&gt;giudicate&lt;/div&gt;" style="rhombus;whiteSpace=wrap;html=1;" parent="1" vertex="1">
          <mxGeometry x="570" y="633" width="80" height="80" as="geometry" />
        </mxCell>
        <mxCell id="FfVXFCaMh1slwa6Uivpq-43" value="VOTI" style="rounded=0;whiteSpace=wrap;html=1;" parent="1" vertex="1">
          <mxGeometry x="740" y="653" width="120" height="40" as="geometry" />
        </mxCell>
        <mxCell id="FfVXFCaMh1slwa6Uivpq-44" style="edgeStyle=orthogonalEdgeStyle;rounded=0;orthogonalLoop=1;jettySize=auto;html=1;endArrow=oval;endFill=1;exitX=1;exitY=0.5;exitDx=0;exitDy=0;" parent="1" source="FfVXFCaMh1slwa6Uivpq-43" target="FfVXFCaMh1slwa6Uivpq-45" edge="1">
          <mxGeometry relative="1" as="geometry" />
        </mxCell>
        <mxCell id="FfVXFCaMh1slwa6Uivpq-45" value="codVoto" style="text;html=1;align=left;verticalAlign=middle;whiteSpace=wrap;rounded=0;spacingLeft=4;" parent="1" vertex="1">
          <mxGeometry x="900" y="633" width="60" height="20" as="geometry" />
        </mxCell>
        <mxCell id="FfVXFCaMh1slwa6Uivpq-48" style="edgeStyle=orthogonalEdgeStyle;rounded=0;orthogonalLoop=1;jettySize=auto;html=1;exitX=1;exitY=0.5;exitDx=0;exitDy=0;entryX=0;entryY=0.5;entryDx=0;entryDy=0;endArrow=oval;endFill=0;" parent="1" source="FfVXFCaMh1slwa6Uivpq-43" target="FfVXFCaMh1slwa6Uivpq-49" edge="1">
          <mxGeometry relative="1" as="geometry" />
        </mxCell>
        <mxCell id="FfVXFCaMh1slwa6Uivpq-49" value="tipo" style="text;html=1;align=left;verticalAlign=middle;whiteSpace=wrap;rounded=0;spacingLeft=4;" parent="1" vertex="1">
          <mxGeometry x="900" y="653" width="60" height="20" as="geometry" />
        </mxCell>
        <mxCell id="FfVXFCaMh1slwa6Uivpq-50" style="edgeStyle=orthogonalEdgeStyle;rounded=0;orthogonalLoop=1;jettySize=auto;html=1;exitX=1;exitY=0.5;exitDx=0;exitDy=0;endArrow=oval;endFill=0;entryX=0;entryY=0.5;entryDx=0;entryDy=0;" parent="1" source="FfVXFCaMh1slwa6Uivpq-43" target="FfVXFCaMh1slwa6Uivpq-51" edge="1">
          <mxGeometry relative="1" as="geometry" />
        </mxCell>
        <mxCell id="FfVXFCaMh1slwa6Uivpq-51" value="data/ora" style="text;html=1;align=left;verticalAlign=middle;whiteSpace=wrap;rounded=0;spacingLeft=4;" parent="1" vertex="1">
          <mxGeometry x="900" y="673" width="60" height="20" as="geometry" />
        </mxCell>
        <mxCell id="FfVXFCaMh1slwa6Uivpq-55" style="edgeStyle=orthogonalEdgeStyle;rounded=0;orthogonalLoop=1;jettySize=auto;html=1;exitX=0.5;exitY=1;exitDx=0;exitDy=0;endArrow=oval;endFill=0;" parent="1" source="FfVXFCaMh1slwa6Uivpq-32" target="FfVXFCaMh1slwa6Uivpq-56" edge="1">
          <mxGeometry relative="1" as="geometry" />
        </mxCell>
        <mxCell id="FfVXFCaMh1slwa6Uivpq-56" value="ordine esibizione" style="text;html=1;align=left;verticalAlign=middle;whiteSpace=wrap;rounded=0;spacingLeft=4;" parent="1" vertex="1">
          <mxGeometry x="440" y="783" width="100" height="30" as="geometry" />
        </mxCell>
        <mxCell id="FfVXFCaMh1slwa6Uivpq-57" style="edgeStyle=orthogonalEdgeStyle;rounded=0;orthogonalLoop=1;jettySize=auto;html=1;endArrow=oval;endFill=0;" parent="1" source="FfVXFCaMh1slwa6Uivpq-32" target="FfVXFCaMh1slwa6Uivpq-58" edge="1">
          <mxGeometry relative="1" as="geometry" />
        </mxCell>
        <mxCell id="FfVXFCaMh1slwa6Uivpq-58" value="orario" style="text;html=1;align=left;verticalAlign=middle;whiteSpace=wrap;rounded=0;spacingLeft=4;" parent="1" vertex="1">
          <mxGeometry x="400" y="783" width="60" height="30" as="geometry" />
        </mxCell>
        <mxCell id="FfVXFCaMh1slwa6Uivpq-59" value="" style="endArrow=oval;html=1;rounded=0;endFill=1;" parent="1" edge="1">
          <mxGeometry width="50" height="50" relative="1" as="geometry">
            <mxPoint x="70" y="443" as="sourcePoint" />
            <mxPoint x="350" y="753" as="targetPoint" />
            <Array as="points">
              <mxPoint x="220" y="443" />
              <mxPoint x="220" y="753" />
            </Array>
          </mxGeometry>
        </mxCell>
        <mxCell id="FfVXFCaMh1slwa6Uivpq-60" value="" style="endArrow=oval;html=1;rounded=0;startFill=0;endFill=1;" parent="1" edge="1">
          <mxGeometry width="50" height="50" relative="1" as="geometry">
            <mxPoint x="470" y="443" as="sourcePoint" />
            <mxPoint x="350" y="740" as="targetPoint" />
            <Array as="points">
              <mxPoint x="290" y="443" />
              <mxPoint x="290" y="740" />
            </Array>
          </mxGeometry>
        </mxCell>
        <mxCell id="x2zab3pYVwAR0wrfxQrk-1" style="edgeStyle=orthogonalEdgeStyle;rounded=0;orthogonalLoop=1;jettySize=auto;html=1;exitX=0.5;exitY=1;exitDx=0;exitDy=0;entryX=0.5;entryY=0;entryDx=0;entryDy=0;endArrow=none;startFill=0;" parent="1" source="x2zab3pYVwAR0wrfxQrk-3" target="x2zab3pYVwAR0wrfxQrk-15" edge="1">
          <mxGeometry relative="1" as="geometry" />
        </mxCell>
        <mxCell id="x2zab3pYVwAR0wrfxQrk-2" value="(1,n)" style="edgeLabel;html=1;align=center;verticalAlign=middle;resizable=0;points=[];" parent="x2zab3pYVwAR0wrfxQrk-1" vertex="1" connectable="0">
          <mxGeometry x="-0.1852" y="1" relative="1" as="geometry">
            <mxPoint as="offset" />
          </mxGeometry>
        </mxCell>
        <mxCell id="mLG4oxGB4V9aVwgX2wfx-12" style="edgeStyle=orthogonalEdgeStyle;rounded=0;orthogonalLoop=1;jettySize=auto;html=1;exitX=0.5;exitY=0;exitDx=0;exitDy=0;entryX=0;entryY=0.5;entryDx=0;entryDy=0;endArrow=none;startFill=0;" parent="1" source="x2zab3pYVwAR0wrfxQrk-3" target="mLG4oxGB4V9aVwgX2wfx-10" edge="1">
          <mxGeometry relative="1" as="geometry" />
        </mxCell>
        <mxCell id="mLG4oxGB4V9aVwgX2wfx-32" value="(0,n)" style="edgeLabel;html=1;align=center;verticalAlign=middle;resizable=0;points=[];" parent="mLG4oxGB4V9aVwgX2wfx-12" vertex="1" connectable="0">
          <mxGeometry x="0.1508" y="-1" relative="1" as="geometry">
            <mxPoint as="offset" />
          </mxGeometry>
        </mxCell>
        <mxCell id="x2zab3pYVwAR0wrfxQrk-3" value="UTENTI" style="rounded=0;whiteSpace=wrap;html=1;" parent="1" vertex="1">
          <mxGeometry x="115" y="-730" width="120" height="40" as="geometry" />
        </mxCell>
        <mxCell id="x2zab3pYVwAR0wrfxQrk-4" style="edgeStyle=orthogonalEdgeStyle;rounded=0;orthogonalLoop=1;jettySize=auto;html=1;exitX=1;exitY=0.5;exitDx=0;exitDy=0;endArrow=oval;endFill=1;entryX=0;entryY=0.5;entryDx=0;entryDy=0;" parent="1" source="x2zab3pYVwAR0wrfxQrk-3" target="x2zab3pYVwAR0wrfxQrk-5" edge="1">
          <mxGeometry relative="1" as="geometry" />
        </mxCell>
        <mxCell id="x2zab3pYVwAR0wrfxQrk-5" value="username" style="text;html=1;align=left;verticalAlign=middle;whiteSpace=wrap;rounded=0;spacingLeft=4;" parent="1" vertex="1">
          <mxGeometry x="275" y="-740" width="60" height="30" as="geometry" />
        </mxCell>
        <mxCell id="x2zab3pYVwAR0wrfxQrk-6" style="edgeStyle=orthogonalEdgeStyle;rounded=0;orthogonalLoop=1;jettySize=auto;html=1;exitX=1;exitY=0.5;exitDx=0;exitDy=0;endArrow=oval;endFill=0;" parent="1" source="x2zab3pYVwAR0wrfxQrk-3" target="x2zab3pYVwAR0wrfxQrk-7" edge="1">
          <mxGeometry relative="1" as="geometry" />
        </mxCell>
        <mxCell id="x2zab3pYVwAR0wrfxQrk-7" value="nome" style="text;html=1;align=left;verticalAlign=middle;whiteSpace=wrap;rounded=0;spacingLeft=4;" parent="1" vertex="1">
          <mxGeometry x="275" y="-720" width="60" height="30" as="geometry" />
        </mxCell>
        <mxCell id="x2zab3pYVwAR0wrfxQrk-8" style="edgeStyle=orthogonalEdgeStyle;rounded=0;orthogonalLoop=1;jettySize=auto;html=1;entryX=0;entryY=0.5;entryDx=0;entryDy=0;exitX=1;exitY=0.5;exitDx=0;exitDy=0;endArrow=oval;endFill=0;" parent="1" source="x2zab3pYVwAR0wrfxQrk-3" target="x2zab3pYVwAR0wrfxQrk-9" edge="1">
          <mxGeometry relative="1" as="geometry">
            <mxPoint x="235" y="-700" as="sourcePoint" />
          </mxGeometry>
        </mxCell>
        <mxCell id="x2zab3pYVwAR0wrfxQrk-9" value="cognome" style="text;html=1;align=left;verticalAlign=middle;whiteSpace=wrap;rounded=0;spacingLeft=4;" parent="1" vertex="1">
          <mxGeometry x="275" y="-700" width="60" height="30" as="geometry" />
        </mxCell>
        <mxCell id="prDqPZr-P2w_M1zw6b7I-51" style="edgeStyle=orthogonalEdgeStyle;rounded=0;orthogonalLoop=1;jettySize=auto;html=1;exitX=0.5;exitY=1;exitDx=0;exitDy=0;entryX=0;entryY=0.5;entryDx=0;entryDy=0;endArrow=none;startFill=0;" parent="1" source="x2zab3pYVwAR0wrfxQrk-12" target="prDqPZr-P2w_M1zw6b7I-50" edge="1">
          <mxGeometry relative="1" as="geometry" />
        </mxCell>
        <mxCell id="prDqPZr-P2w_M1zw6b7I-52" value="(1,n)" style="edgeLabel;html=1;align=center;verticalAlign=middle;resizable=0;points=[];" parent="prDqPZr-P2w_M1zw6b7I-51" vertex="1" connectable="0">
          <mxGeometry x="0.2629" relative="1" as="geometry">
            <mxPoint as="offset" />
          </mxGeometry>
        </mxCell>
        <mxCell id="x2zab3pYVwAR0wrfxQrk-12" value="SQUADRE" style="rounded=0;whiteSpace=wrap;html=1;" parent="1" vertex="1">
          <mxGeometry x="245" y="-570" width="120" height="40" as="geometry" />
        </mxCell>
        <mxCell id="x2zab3pYVwAR0wrfxQrk-13" style="edgeStyle=orthogonalEdgeStyle;rounded=0;orthogonalLoop=1;jettySize=auto;html=1;endArrow=none;startFill=0;" parent="1" source="x2zab3pYVwAR0wrfxQrk-15" target="x2zab3pYVwAR0wrfxQrk-12" edge="1">
          <mxGeometry relative="1" as="geometry" />
        </mxCell>
        <mxCell id="x2zab3pYVwAR0wrfxQrk-14" value="(1,1)" style="edgeLabel;html=1;align=center;verticalAlign=middle;resizable=0;points=[];" parent="x2zab3pYVwAR0wrfxQrk-13" vertex="1" connectable="0">
          <mxGeometry x="0.168" y="1" relative="1" as="geometry">
            <mxPoint x="-1" y="-23" as="offset" />
          </mxGeometry>
        </mxCell>
        <mxCell id="x2zab3pYVwAR0wrfxQrk-15" value="possiedono" style="rhombus;whiteSpace=wrap;html=1;" parent="1" vertex="1">
          <mxGeometry x="135" y="-590" width="80" height="80" as="geometry" />
        </mxCell>
        <mxCell id="x2zab3pYVwAR0wrfxQrk-16" style="edgeStyle=orthogonalEdgeStyle;rounded=0;orthogonalLoop=1;jettySize=auto;html=1;endArrow=oval;endFill=0;exitX=1;exitY=0.5;exitDx=0;exitDy=0;entryX=0;entryY=0.5;entryDx=0;entryDy=0;" parent="1" source="x2zab3pYVwAR0wrfxQrk-12" target="x2zab3pYVwAR0wrfxQrk-17" edge="1">
          <mxGeometry relative="1" as="geometry" />
        </mxCell>
        <mxCell id="x2zab3pYVwAR0wrfxQrk-17" value="nome" style="text;html=1;align=left;verticalAlign=middle;whiteSpace=wrap;rounded=0;spacingLeft=4;" parent="1" vertex="1">
          <mxGeometry x="405" y="-600" width="80" height="30" as="geometry" />
        </mxCell>
        <mxCell id="x2zab3pYVwAR0wrfxQrk-18" style="edgeStyle=orthogonalEdgeStyle;rounded=0;orthogonalLoop=1;jettySize=auto;html=1;exitX=1;exitY=0.5;exitDx=0;exitDy=0;endArrow=oval;endFill=1;entryX=0;entryY=0.5;entryDx=0;entryDy=0;" parent="1" source="x2zab3pYVwAR0wrfxQrk-12" target="x2zab3pYVwAR0wrfxQrk-19" edge="1">
          <mxGeometry relative="1" as="geometry" />
        </mxCell>
        <mxCell id="x2zab3pYVwAR0wrfxQrk-19" value="codSquadra" style="text;html=1;align=left;verticalAlign=middle;whiteSpace=wrap;rounded=0;spacingLeft=4;" parent="1" vertex="1">
          <mxGeometry x="405" y="-620" width="80" height="30" as="geometry" />
        </mxCell>
        <mxCell id="2gdoB9V7-eAWrZrWWVSR-19" style="edgeStyle=orthogonalEdgeStyle;rounded=0;orthogonalLoop=1;jettySize=auto;html=1;entryX=0;entryY=0.5;entryDx=0;entryDy=0;endArrow=none;startFill=0;" parent="1" source="x2zab3pYVwAR0wrfxQrk-21" target="2gdoB9V7-eAWrZrWWVSR-16" edge="1">
          <mxGeometry relative="1" as="geometry" />
        </mxCell>
        <mxCell id="2gdoB9V7-eAWrZrWWVSR-20" value="(0,n)" style="edgeLabel;html=1;align=center;verticalAlign=middle;resizable=0;points=[];" parent="2gdoB9V7-eAWrZrWWVSR-19" vertex="1" connectable="0">
          <mxGeometry x="0.1877" y="-3" relative="1" as="geometry">
            <mxPoint as="offset" />
          </mxGeometry>
        </mxCell>
        <mxCell id="x2zab3pYVwAR0wrfxQrk-21" value="FORMAZIONI" style="rounded=0;whiteSpace=wrap;html=1;" parent="1" vertex="1">
          <mxGeometry x="600" y="-520" width="120" height="40" as="geometry" />
        </mxCell>
        <mxCell id="prDqPZr-P2w_M1zw6b7I-59" style="edgeStyle=orthogonalEdgeStyle;rounded=0;orthogonalLoop=1;jettySize=auto;html=1;endArrow=oval;endFill=0;entryX=0;entryY=0.5;entryDx=0;entryDy=0;" parent="1" source="x2zab3pYVwAR0wrfxQrk-21" target="x2zab3pYVwAR0wrfxQrk-29" edge="1">
          <mxGeometry relative="1" as="geometry" />
        </mxCell>
        <mxCell id="x2zab3pYVwAR0wrfxQrk-29" value="data modifica" style="text;html=1;align=left;verticalAlign=middle;whiteSpace=wrap;rounded=0;spacingLeft=4;" parent="1" vertex="1">
          <mxGeometry x="720" y="-560" width="90" height="30" as="geometry" />
        </mxCell>
        <mxCell id="2gdoB9V7-eAWrZrWWVSR-18" style="edgeStyle=orthogonalEdgeStyle;rounded=0;orthogonalLoop=1;jettySize=auto;html=1;entryX=0.5;entryY=0;entryDx=0;entryDy=0;endArrow=none;startFill=0;" parent="1" source="prDqPZr-P2w_M1zw6b7I-1" target="2gdoB9V7-eAWrZrWWVSR-16" edge="1">
          <mxGeometry relative="1" as="geometry">
            <mxPoint x="1000" y="-550" as="targetPoint" />
          </mxGeometry>
        </mxCell>
        <mxCell id="2gdoB9V7-eAWrZrWWVSR-21" value="(1,n)" style="edgeLabel;html=1;align=center;verticalAlign=middle;resizable=0;points=[];" parent="2gdoB9V7-eAWrZrWWVSR-18" vertex="1" connectable="0">
          <mxGeometry x="0.1408" y="-4" relative="1" as="geometry">
            <mxPoint as="offset" />
          </mxGeometry>
        </mxCell>
        <mxCell id="prDqPZr-P2w_M1zw6b7I-1" value="BONUS MALUS" style="rounded=0;whiteSpace=wrap;html=1;" parent="1" vertex="1">
          <mxGeometry x="860" y="-770" width="120" height="40" as="geometry" />
        </mxCell>
        <mxCell id="prDqPZr-P2w_M1zw6b7I-2" style="edgeStyle=orthogonalEdgeStyle;rounded=0;orthogonalLoop=1;jettySize=auto;html=1;exitX=1;exitY=0.5;exitDx=0;exitDy=0;endArrow=oval;endFill=1;entryX=0;entryY=0.5;entryDx=0;entryDy=0;" parent="1" source="prDqPZr-P2w_M1zw6b7I-1" target="prDqPZr-P2w_M1zw6b7I-3" edge="1">
          <mxGeometry relative="1" as="geometry" />
        </mxCell>
        <mxCell id="prDqPZr-P2w_M1zw6b7I-3" value="codBonusMalus" style="text;html=1;align=left;verticalAlign=middle;whiteSpace=wrap;rounded=0;spacingLeft=4;" parent="1" vertex="1">
          <mxGeometry x="1040" y="-800" width="110" height="30" as="geometry" />
        </mxCell>
        <mxCell id="prDqPZr-P2w_M1zw6b7I-4" style="edgeStyle=orthogonalEdgeStyle;rounded=0;orthogonalLoop=1;jettySize=auto;html=1;endArrow=oval;endFill=0;exitX=1;exitY=0.5;exitDx=0;exitDy=0;entryX=0;entryY=0.5;entryDx=0;entryDy=0;" parent="1" source="prDqPZr-P2w_M1zw6b7I-1" target="prDqPZr-P2w_M1zw6b7I-5" edge="1">
          <mxGeometry relative="1" as="geometry" />
        </mxCell>
        <mxCell id="prDqPZr-P2w_M1zw6b7I-5" value="valore" style="text;html=1;align=left;verticalAlign=middle;whiteSpace=wrap;rounded=0;spacingLeft=4;" parent="1" vertex="1">
          <mxGeometry x="1040" y="-761" width="60" height="30" as="geometry" />
        </mxCell>
        <mxCell id="prDqPZr-P2w_M1zw6b7I-6" style="edgeStyle=orthogonalEdgeStyle;rounded=0;orthogonalLoop=1;jettySize=auto;html=1;exitX=1;exitY=0.5;exitDx=0;exitDy=0;endArrow=oval;endFill=0;entryX=0;entryY=0.5;entryDx=0;entryDy=0;" parent="1" source="prDqPZr-P2w_M1zw6b7I-1" target="prDqPZr-P2w_M1zw6b7I-7" edge="1">
          <mxGeometry relative="1" as="geometry" />
        </mxCell>
        <mxCell id="prDqPZr-P2w_M1zw6b7I-7" value="descrizione" style="text;html=1;align=left;verticalAlign=middle;whiteSpace=wrap;rounded=0;spacingLeft=4;" parent="1" vertex="1">
          <mxGeometry x="1040" y="-780" width="90.5" height="29" as="geometry" />
        </mxCell>
        <mxCell id="2gdoB9V7-eAWrZrWWVSR-4" style="edgeStyle=orthogonalEdgeStyle;rounded=0;orthogonalLoop=1;jettySize=auto;html=1;exitX=0.5;exitY=0;exitDx=0;exitDy=0;entryX=0.5;entryY=1;entryDx=0;entryDy=0;endArrow=none;startFill=0;" parent="1" source="FfVXFCaMh1slwa6Uivpq-3" target="2gdoB9V7-eAWrZrWWVSR-3" edge="1">
          <mxGeometry relative="1" as="geometry">
            <Array as="points">
              <mxPoint x="180" y="-280" />
              <mxPoint x="630" y="-280" />
            </Array>
          </mxGeometry>
        </mxCell>
        <mxCell id="2gdoB9V7-eAWrZrWWVSR-37" value="(0,n)" style="edgeLabel;html=1;align=center;verticalAlign=middle;resizable=0;points=[];" parent="2gdoB9V7-eAWrZrWWVSR-4" vertex="1" connectable="0">
          <mxGeometry x="-0.5747" y="-1" relative="1" as="geometry">
            <mxPoint as="offset" />
          </mxGeometry>
        </mxCell>
        <mxCell id="prDqPZr-P2w_M1zw6b7I-23" value="" style="edgeStyle=orthogonalEdgeStyle;rounded=0;orthogonalLoop=1;jettySize=auto;html=1;exitX=1;exitY=0.5;exitDx=0;exitDy=0;endArrow=oval;endFill=0;entryX=0;entryY=0.5;entryDx=0;entryDy=0;" parent="1" source="FfVXFCaMh1slwa6Uivpq-3" target="FfVXFCaMh1slwa6Uivpq-5" edge="1">
          <mxGeometry relative="1" as="geometry">
            <mxPoint x="240" y="-117" as="sourcePoint" />
            <mxPoint x="310" y="-157" as="targetPoint" />
          </mxGeometry>
        </mxCell>
        <mxCell id="FfVXFCaMh1slwa6Uivpq-5" value="nome (0,1)" style="text;html=1;align=left;verticalAlign=middle;whiteSpace=wrap;rounded=0;spacingLeft=4;" parent="1" vertex="1">
          <mxGeometry x="280" y="-241" width="80" height="30" as="geometry" />
        </mxCell>
        <mxCell id="prDqPZr-P2w_M1zw6b7I-31" style="edgeStyle=orthogonalEdgeStyle;rounded=0;orthogonalLoop=1;jettySize=auto;html=1;entryX=0.5;entryY=1;entryDx=0;entryDy=0;exitX=0.5;exitY=0;exitDx=0;exitDy=0;endArrow=none;startFill=0;" parent="1" source="prDqPZr-P2w_M1zw6b7I-27" target="FfVXFCaMh1slwa6Uivpq-3" edge="1">
          <mxGeometry relative="1" as="geometry">
            <mxPoint x="395" y="13" as="sourcePoint" />
            <mxPoint x="225" y="-97" as="targetPoint" />
          </mxGeometry>
        </mxCell>
        <mxCell id="prDqPZr-P2w_M1zw6b7I-41" value="(1,n)" style="edgeLabel;html=1;align=center;verticalAlign=middle;resizable=0;points=[];" parent="prDqPZr-P2w_M1zw6b7I-31" vertex="1" connectable="0">
          <mxGeometry x="-0.0565" y="3" relative="1" as="geometry">
            <mxPoint as="offset" />
          </mxGeometry>
        </mxCell>
        <mxCell id="prDqPZr-P2w_M1zw6b7I-27" value="scritto" style="rhombus;whiteSpace=wrap;html=1;" parent="1" vertex="1">
          <mxGeometry x="320" y="63" width="80" height="80" as="geometry" />
        </mxCell>
        <mxCell id="prDqPZr-P2w_M1zw6b7I-32" style="edgeStyle=orthogonalEdgeStyle;rounded=0;orthogonalLoop=1;jettySize=auto;html=1;endArrow=none;startFill=0;exitX=0.5;exitY=0;exitDx=0;exitDy=0;" parent="1" source="prDqPZr-P2w_M1zw6b7I-28" edge="1">
          <mxGeometry relative="1" as="geometry">
            <mxPoint x="200" y="-97" as="targetPoint" />
            <Array as="points">
              <mxPoint x="460" y="-37" />
              <mxPoint x="200" y="-37" />
            </Array>
          </mxGeometry>
        </mxCell>
        <mxCell id="prDqPZr-P2w_M1zw6b7I-42" value="(1,n)" style="edgeLabel;html=1;align=center;verticalAlign=middle;resizable=0;points=[];" parent="prDqPZr-P2w_M1zw6b7I-32" vertex="1" connectable="0">
          <mxGeometry x="0.0427" y="-2" relative="1" as="geometry">
            <mxPoint as="offset" />
          </mxGeometry>
        </mxCell>
        <mxCell id="prDqPZr-P2w_M1zw6b7I-34" style="edgeStyle=orthogonalEdgeStyle;rounded=0;orthogonalLoop=1;jettySize=auto;html=1;entryX=0.75;entryY=0;entryDx=0;entryDy=0;endArrow=none;startFill=0;" parent="1" source="prDqPZr-P2w_M1zw6b7I-28" target="FfVXFCaMh1slwa6Uivpq-22" edge="1">
          <mxGeometry relative="1" as="geometry" />
        </mxCell>
        <mxCell id="prDqPZr-P2w_M1zw6b7I-45" value="(1,n)" style="edgeLabel;html=1;align=center;verticalAlign=middle;resizable=0;points=[];" parent="prDqPZr-P2w_M1zw6b7I-34" vertex="1" connectable="0">
          <mxGeometry x="0.592" y="3" relative="1" as="geometry">
            <mxPoint as="offset" />
          </mxGeometry>
        </mxCell>
        <mxCell id="prDqPZr-P2w_M1zw6b7I-28" value="composto" style="rhombus;whiteSpace=wrap;html=1;" parent="1" vertex="1">
          <mxGeometry x="420" y="63" width="80" height="80" as="geometry" />
        </mxCell>
        <mxCell id="prDqPZr-P2w_M1zw6b7I-36" style="edgeStyle=orthogonalEdgeStyle;rounded=0;orthogonalLoop=1;jettySize=auto;html=1;exitX=0.5;exitY=0;exitDx=0;exitDy=0;entryX=1;entryY=1;entryDx=0;entryDy=0;endArrow=none;startFill=0;" parent="1" source="prDqPZr-P2w_M1zw6b7I-29" target="FfVXFCaMh1slwa6Uivpq-3" edge="1">
          <mxGeometry relative="1" as="geometry">
            <Array as="points">
              <mxPoint x="570" y="-57" />
              <mxPoint x="240" y="-57" />
            </Array>
          </mxGeometry>
        </mxCell>
        <mxCell id="prDqPZr-P2w_M1zw6b7I-43" value="(1,n)" style="edgeLabel;html=1;align=center;verticalAlign=middle;resizable=0;points=[];" parent="prDqPZr-P2w_M1zw6b7I-36" vertex="1" connectable="0">
          <mxGeometry x="-0.1557" relative="1" as="geometry">
            <mxPoint as="offset" />
          </mxGeometry>
        </mxCell>
        <mxCell id="prDqPZr-P2w_M1zw6b7I-40" style="edgeStyle=orthogonalEdgeStyle;rounded=0;orthogonalLoop=1;jettySize=auto;html=1;entryX=1;entryY=0;entryDx=0;entryDy=0;endArrow=none;startFill=0;exitX=0.5;exitY=1;exitDx=0;exitDy=0;" parent="1" source="prDqPZr-P2w_M1zw6b7I-29" target="FfVXFCaMh1slwa6Uivpq-22" edge="1">
          <mxGeometry relative="1" as="geometry">
            <Array as="points">
              <mxPoint x="570" y="220" />
              <mxPoint x="490" y="220" />
            </Array>
          </mxGeometry>
        </mxCell>
        <mxCell id="prDqPZr-P2w_M1zw6b7I-44" value="(1,1)" style="edgeLabel;html=1;align=center;verticalAlign=middle;resizable=0;points=[];" parent="prDqPZr-P2w_M1zw6b7I-40" vertex="1" connectable="0">
          <mxGeometry x="0.4128" y="1" relative="1" as="geometry">
            <mxPoint as="offset" />
          </mxGeometry>
        </mxCell>
        <mxCell id="prDqPZr-P2w_M1zw6b7I-29" value="diretto" style="rhombus;whiteSpace=wrap;html=1;" parent="1" vertex="1">
          <mxGeometry x="531" y="63" width="80" height="80" as="geometry" />
        </mxCell>
        <mxCell id="prDqPZr-P2w_M1zw6b7I-49" value="" style="endArrow=oval;html=1;rounded=0;endFill=1;entryX=1;entryY=1;entryDx=0;entryDy=0;" parent="1" edge="1">
          <mxGeometry width="50" height="50" relative="1" as="geometry">
            <mxPoint x="332" y="38" as="sourcePoint" />
            <mxPoint x="337" y="201" as="targetPoint" />
            <Array as="points">
              <mxPoint x="412" y="38" />
              <mxPoint x="412" y="201" />
            </Array>
          </mxGeometry>
        </mxCell>
        <mxCell id="prDqPZr-P2w_M1zw6b7I-53" style="edgeStyle=orthogonalEdgeStyle;rounded=0;orthogonalLoop=1;jettySize=auto;html=1;entryX=0;entryY=0.5;entryDx=0;entryDy=0;endArrow=none;startFill=0;" parent="1" source="prDqPZr-P2w_M1zw6b7I-50" target="x2zab3pYVwAR0wrfxQrk-21" edge="1">
          <mxGeometry relative="1" as="geometry" />
        </mxCell>
        <mxCell id="prDqPZr-P2w_M1zw6b7I-66" value="(1,1)" style="edgeLabel;html=1;align=center;verticalAlign=middle;resizable=0;points=[];" parent="prDqPZr-P2w_M1zw6b7I-53" vertex="1" connectable="0">
          <mxGeometry x="-0.0079" y="-1" relative="1" as="geometry">
            <mxPoint as="offset" />
          </mxGeometry>
        </mxCell>
        <mxCell id="prDqPZr-P2w_M1zw6b7I-50" value="schierano" style="rhombus;whiteSpace=wrap;html=1;" parent="1" vertex="1">
          <mxGeometry x="405" y="-540" width="80" height="80" as="geometry" />
        </mxCell>
        <mxCell id="prDqPZr-P2w_M1zw6b7I-58" value="" style="endArrow=oval;html=1;rounded=0;endFill=1;" parent="1" edge="1">
          <mxGeometry width="50" height="50" relative="1" as="geometry">
            <mxPoint x="380" y="-457.99999999999955" as="sourcePoint" />
            <mxPoint x="560" y="-410" as="targetPoint" />
            <Array as="points">
              <mxPoint x="380" y="-544.9999999999995" />
              <mxPoint x="560" y="-545" />
            </Array>
          </mxGeometry>
        </mxCell>
        <mxCell id="mLG4oxGB4V9aVwgX2wfx-21" style="edgeStyle=orthogonalEdgeStyle;rounded=0;orthogonalLoop=1;jettySize=auto;html=1;exitX=0.5;exitY=1;exitDx=0;exitDy=0;entryX=0.5;entryY=0;entryDx=0;entryDy=0;endArrow=none;startFill=0;" parent="1" source="mLG4oxGB4V9aVwgX2wfx-1" target="mLG4oxGB4V9aVwgX2wfx-15" edge="1">
          <mxGeometry relative="1" as="geometry" />
        </mxCell>
        <mxCell id="mLG4oxGB4V9aVwgX2wfx-31" value="(1,n)" style="edgeLabel;html=1;align=center;verticalAlign=middle;resizable=0;points=[];" parent="mLG4oxGB4V9aVwgX2wfx-21" vertex="1" connectable="0">
          <mxGeometry x="0.1852" y="1" relative="1" as="geometry">
            <mxPoint as="offset" />
          </mxGeometry>
        </mxCell>
        <mxCell id="mLG4oxGB4V9aVwgX2wfx-1" value="LEGHE" style="rounded=0;whiteSpace=wrap;html=1;" parent="1" vertex="1">
          <mxGeometry x="565" y="-780" width="125" height="40" as="geometry" />
        </mxCell>
        <mxCell id="mLG4oxGB4V9aVwgX2wfx-6" style="edgeStyle=orthogonalEdgeStyle;rounded=0;orthogonalLoop=1;jettySize=auto;html=1;exitX=1;exitY=0.5;exitDx=0;exitDy=0;entryX=0;entryY=0.5;entryDx=0;entryDy=0;endArrow=oval;endFill=1;" parent="1" source="mLG4oxGB4V9aVwgX2wfx-1" target="mLG4oxGB4V9aVwgX2wfx-2" edge="1">
          <mxGeometry relative="1" as="geometry" />
        </mxCell>
        <mxCell id="mLG4oxGB4V9aVwgX2wfx-2" value="codLega" style="text;html=1;align=left;verticalAlign=middle;whiteSpace=wrap;rounded=0;spacingLeft=4;" parent="1" vertex="1">
          <mxGeometry x="767" y="-794" width="60" height="30" as="geometry" />
        </mxCell>
        <mxCell id="mLG4oxGB4V9aVwgX2wfx-7" style="edgeStyle=orthogonalEdgeStyle;rounded=0;orthogonalLoop=1;jettySize=auto;html=1;exitX=1;exitY=0.5;exitDx=0;exitDy=0;endArrow=oval;endFill=0;" parent="1" source="mLG4oxGB4V9aVwgX2wfx-1" target="mLG4oxGB4V9aVwgX2wfx-4" edge="1">
          <mxGeometry relative="1" as="geometry" />
        </mxCell>
        <mxCell id="mLG4oxGB4V9aVwgX2wfx-4" value="nome" style="text;html=1;align=left;verticalAlign=middle;whiteSpace=wrap;rounded=0;spacingLeft=4;" parent="1" vertex="1">
          <mxGeometry x="767" y="-775" width="60" height="30" as="geometry" />
        </mxCell>
        <mxCell id="mLG4oxGB4V9aVwgX2wfx-8" style="edgeStyle=orthogonalEdgeStyle;rounded=0;orthogonalLoop=1;jettySize=auto;html=1;exitX=1;exitY=0.5;exitDx=0;exitDy=0;endArrow=oval;endFill=0;" parent="1" source="mLG4oxGB4V9aVwgX2wfx-1" target="mLG4oxGB4V9aVwgX2wfx-5" edge="1">
          <mxGeometry relative="1" as="geometry" />
        </mxCell>
        <mxCell id="mLG4oxGB4V9aVwgX2wfx-5" value="tipo" style="text;html=1;align=left;verticalAlign=middle;whiteSpace=wrap;rounded=0;spacingLeft=4;" parent="1" vertex="1">
          <mxGeometry x="767" y="-754" width="43" height="30" as="geometry" />
        </mxCell>
        <mxCell id="mLG4oxGB4V9aVwgX2wfx-13" value="" style="edgeStyle=orthogonalEdgeStyle;rounded=0;orthogonalLoop=1;jettySize=auto;html=1;endArrow=none;startFill=0;" parent="1" source="mLG4oxGB4V9aVwgX2wfx-10" target="mLG4oxGB4V9aVwgX2wfx-1" edge="1">
          <mxGeometry relative="1" as="geometry" />
        </mxCell>
        <mxCell id="mLG4oxGB4V9aVwgX2wfx-33" value="(1,n)" style="edgeLabel;html=1;align=center;verticalAlign=middle;resizable=0;points=[];" parent="mLG4oxGB4V9aVwgX2wfx-13" vertex="1" connectable="0">
          <mxGeometry x="-0.1562" y="1" relative="1" as="geometry">
            <mxPoint as="offset" />
          </mxGeometry>
        </mxCell>
        <mxCell id="mLG4oxGB4V9aVwgX2wfx-10" value="gestiscono" style="rhombus;whiteSpace=wrap;html=1;" parent="1" vertex="1">
          <mxGeometry x="400" y="-800" width="80" height="80" as="geometry" />
        </mxCell>
        <mxCell id="mLG4oxGB4V9aVwgX2wfx-14" style="edgeStyle=orthogonalEdgeStyle;rounded=0;orthogonalLoop=1;jettySize=auto;html=1;entryX=0;entryY=0.5;entryDx=0;entryDy=0;endArrow=oval;endFill=0;" parent="1" source="mLG4oxGB4V9aVwgX2wfx-10" target="mLG4oxGB4V9aVwgX2wfx-11" edge="1">
          <mxGeometry relative="1" as="geometry" />
        </mxCell>
        <mxCell id="mLG4oxGB4V9aVwgX2wfx-11" value="proprietario" style="text;html=1;align=left;verticalAlign=middle;whiteSpace=wrap;rounded=0;spacingLeft=4;" parent="1" vertex="1">
          <mxGeometry x="460" y="-700" width="110" height="30" as="geometry" />
        </mxCell>
        <mxCell id="mLG4oxGB4V9aVwgX2wfx-24" style="edgeStyle=orthogonalEdgeStyle;rounded=0;orthogonalLoop=1;jettySize=auto;html=1;entryX=0.5;entryY=0;entryDx=0;entryDy=0;endArrow=none;startFill=0;" parent="1" source="mLG4oxGB4V9aVwgX2wfx-15" target="x2zab3pYVwAR0wrfxQrk-12" edge="1">
          <mxGeometry relative="1" as="geometry" />
        </mxCell>
        <mxCell id="mLG4oxGB4V9aVwgX2wfx-25" value="(0,n)" style="edgeLabel;html=1;align=center;verticalAlign=middle;resizable=0;points=[];" parent="mLG4oxGB4V9aVwgX2wfx-24" vertex="1" connectable="0">
          <mxGeometry x="-0.1754" relative="1" as="geometry">
            <mxPoint as="offset" />
          </mxGeometry>
        </mxCell>
        <mxCell id="mLG4oxGB4V9aVwgX2wfx-15" value="partecipano" style="rhombus;whiteSpace=wrap;html=1;" parent="1" vertex="1">
          <mxGeometry x="587.5" y="-670" width="80" height="80" as="geometry" />
        </mxCell>
        <mxCell id="mR9rHPTOmK2fjcGCnere-2" style="edgeStyle=orthogonalEdgeStyle;rounded=0;orthogonalLoop=1;jettySize=auto;html=1;exitX=1;exitY=0.5;exitDx=0;exitDy=0;endArrow=oval;endFill=0;entryX=0;entryY=0.5;entryDx=0;entryDy=0;" parent="1" source="prDqPZr-P2w_M1zw6b7I-1" target="mR9rHPTOmK2fjcGCnere-1" edge="1">
          <mxGeometry relative="1" as="geometry" />
        </mxCell>
        <mxCell id="mR9rHPTOmK2fjcGCnere-1" value="tipo" style="text;html=1;align=left;verticalAlign=middle;whiteSpace=wrap;rounded=0;spacingLeft=4;" parent="1" vertex="1">
          <mxGeometry x="1040" y="-736" width="50.5" height="20" as="geometry" />
        </mxCell>
        <mxCell id="2gdoB9V7-eAWrZrWWVSR-28" style="edgeStyle=orthogonalEdgeStyle;rounded=0;orthogonalLoop=1;jettySize=auto;html=1;entryX=0.5;entryY=1;entryDx=0;entryDy=0;endArrow=none;startFill=0;" parent="1" source="aF1c08oioV2zZVXOeiQy-2" target="2gdoB9V7-eAWrZrWWVSR-27" edge="1">
          <mxGeometry relative="1" as="geometry">
            <Array as="points">
              <mxPoint x="240" y="1080" />
              <mxPoint x="1040" y="1080" />
            </Array>
          </mxGeometry>
        </mxCell>
        <mxCell id="2gdoB9V7-eAWrZrWWVSR-34" value="(1,n)" style="edgeLabel;html=1;align=center;verticalAlign=middle;resizable=0;points=[];" parent="2gdoB9V7-eAWrZrWWVSR-28" vertex="1" connectable="0">
          <mxGeometry x="-0.6453" y="2" relative="1" as="geometry">
            <mxPoint as="offset" />
          </mxGeometry>
        </mxCell>
        <mxCell id="aF1c08oioV2zZVXOeiQy-2" value="SERATE" style="rounded=0;whiteSpace=wrap;html=1;" parent="1" vertex="1">
          <mxGeometry x="180" y="970" width="120" height="40" as="geometry" />
        </mxCell>
        <mxCell id="7fMzcdS0EOivYQ-1r7Ah-4" style="edgeStyle=orthogonalEdgeStyle;rounded=0;orthogonalLoop=1;jettySize=auto;html=1;exitX=1;exitY=0.5;exitDx=0;exitDy=0;endArrow=oval;endFill=0;" parent="1" source="aF1c08oioV2zZVXOeiQy-2" target="aF1c08oioV2zZVXOeiQy-3" edge="1">
          <mxGeometry relative="1" as="geometry" />
        </mxCell>
        <mxCell id="aF1c08oioV2zZVXOeiQy-3" value="data (0,1)" style="text;html=1;align=left;verticalAlign=middle;whiteSpace=wrap;rounded=0;spacingLeft=4;" parent="1" vertex="1">
          <mxGeometry x="335" y="990" width="60" height="30" as="geometry" />
        </mxCell>
        <mxCell id="7fMzcdS0EOivYQ-1r7Ah-3" style="edgeStyle=orthogonalEdgeStyle;rounded=0;orthogonalLoop=1;jettySize=auto;html=1;endArrow=oval;endFill=1;exitX=1;exitY=0.5;exitDx=0;exitDy=0;" parent="1" source="aF1c08oioV2zZVXOeiQy-2" target="aF1c08oioV2zZVXOeiQy-4" edge="1">
          <mxGeometry relative="1" as="geometry" />
        </mxCell>
        <mxCell id="aF1c08oioV2zZVXOeiQy-4" value="nome" style="text;html=1;align=left;verticalAlign=middle;whiteSpace=wrap;rounded=0;spacingLeft=4;" parent="1" vertex="1">
          <mxGeometry x="335" y="960" width="60" height="30" as="geometry" />
        </mxCell>
        <mxCell id="aF1c08oioV2zZVXOeiQy-6" style="edgeStyle=orthogonalEdgeStyle;rounded=0;orthogonalLoop=1;jettySize=auto;html=1;exitX=0.5;exitY=1;exitDx=0;exitDy=0;entryX=0.5;entryY=0;entryDx=0;entryDy=0;endArrow=none;startFill=0;" parent="1" source="aF1c08oioV2zZVXOeiQy-5" target="aF1c08oioV2zZVXOeiQy-2" edge="1">
          <mxGeometry relative="1" as="geometry" />
        </mxCell>
        <mxCell id="2gdoB9V7-eAWrZrWWVSR-42" value="(1,n)" style="edgeLabel;html=1;align=center;verticalAlign=middle;resizable=0;points=[];" parent="aF1c08oioV2zZVXOeiQy-6" vertex="1" connectable="0">
          <mxGeometry x="0.2933" y="3" relative="1" as="geometry">
            <mxPoint as="offset" />
          </mxGeometry>
        </mxCell>
        <mxCell id="aF1c08oioV2zZVXOeiQy-7" style="edgeStyle=orthogonalEdgeStyle;rounded=0;orthogonalLoop=1;jettySize=auto;html=1;entryX=0.25;entryY=1;entryDx=0;entryDy=0;endArrow=none;startFill=0;" parent="1" source="aF1c08oioV2zZVXOeiQy-5" target="FfVXFCaMh1slwa6Uivpq-32" edge="1">
          <mxGeometry relative="1" as="geometry" />
        </mxCell>
        <mxCell id="2gdoB9V7-eAWrZrWWVSR-41" value="(1,1)" style="edgeLabel;html=1;align=center;verticalAlign=middle;resizable=0;points=[];" parent="aF1c08oioV2zZVXOeiQy-7" vertex="1" connectable="0">
          <mxGeometry x="0.113" y="-1" relative="1" as="geometry">
            <mxPoint as="offset" />
          </mxGeometry>
        </mxCell>
        <mxCell id="aF1c08oioV2zZVXOeiQy-5" value="si svolge" style="rhombus;whiteSpace=wrap;html=1;" parent="1" vertex="1">
          <mxGeometry x="200" y="827" width="80" height="80" as="geometry" />
        </mxCell>
        <mxCell id="7fMzcdS0EOivYQ-1r7Ah-1" value="" style="endArrow=oval;html=1;rounded=0;startFill=0;endFill=1;" parent="1" edge="1">
          <mxGeometry width="50" height="50" relative="1" as="geometry">
            <mxPoint x="110" y="933" as="sourcePoint" />
            <mxPoint x="340" y="720" as="targetPoint" />
            <Array as="points">
              <mxPoint x="340" y="933" />
            </Array>
          </mxGeometry>
        </mxCell>
        <mxCell id="2gdoB9V7-eAWrZrWWVSR-17" style="edgeStyle=orthogonalEdgeStyle;rounded=0;orthogonalLoop=1;jettySize=auto;html=1;endArrow=oval;endFill=0;exitX=1;exitY=0.5;exitDx=0;exitDy=0;" parent="1" source="2gdoB9V7-eAWrZrWWVSR-16" target="0zIfylm0xCRsZsCd494t-2" edge="1">
          <mxGeometry relative="1" as="geometry" />
        </mxCell>
        <mxCell id="0zIfylm0xCRsZsCd494t-2" value="valore effettivo" style="text;html=1;align=left;verticalAlign=middle;whiteSpace=wrap;rounded=0;spacingLeft=4;" parent="1" vertex="1">
          <mxGeometry x="1050" y="-515" width="100" height="30" as="geometry" />
        </mxCell>
        <mxCell id="2gdoB9V7-eAWrZrWWVSR-6" style="edgeStyle=orthogonalEdgeStyle;rounded=0;orthogonalLoop=1;jettySize=auto;html=1;entryX=0.25;entryY=1;entryDx=0;entryDy=0;endArrow=none;startFill=0;" parent="1" source="2gdoB9V7-eAWrZrWWVSR-3" target="x2zab3pYVwAR0wrfxQrk-21" edge="1">
          <mxGeometry relative="1" as="geometry" />
        </mxCell>
        <mxCell id="2gdoB9V7-eAWrZrWWVSR-38" value="(1,1)" style="edgeLabel;html=1;align=center;verticalAlign=middle;resizable=0;points=[];" parent="2gdoB9V7-eAWrZrWWVSR-6" vertex="1" connectable="0">
          <mxGeometry x="-0.1332" y="-1" relative="1" as="geometry">
            <mxPoint as="offset" />
          </mxGeometry>
        </mxCell>
        <mxCell id="2gdoB9V7-eAWrZrWWVSR-3" value="fa parte di" style="rhombus;whiteSpace=wrap;html=1;" parent="1" vertex="1">
          <mxGeometry x="590" y="-385" width="80" height="80" as="geometry" />
        </mxCell>
        <mxCell id="2gdoB9V7-eAWrZrWWVSR-8" style="edgeStyle=orthogonalEdgeStyle;rounded=0;orthogonalLoop=1;jettySize=auto;html=1;endArrow=oval;endFill=0;exitX=1;exitY=0.5;exitDx=0;exitDy=0;" parent="1" source="2gdoB9V7-eAWrZrWWVSR-3" target="2gdoB9V7-eAWrZrWWVSR-7" edge="1">
          <mxGeometry relative="1" as="geometry" />
        </mxCell>
        <mxCell id="2gdoB9V7-eAWrZrWWVSR-7" value="ruolo" style="text;html=1;align=center;verticalAlign=middle;whiteSpace=wrap;rounded=0;" parent="1" vertex="1">
          <mxGeometry x="707" y="-360" width="60" height="30" as="geometry" />
        </mxCell>
        <mxCell id="2gdoB9V7-eAWrZrWWVSR-12" style="edgeStyle=orthogonalEdgeStyle;rounded=0;orthogonalLoop=1;jettySize=auto;html=1;endArrow=oval;endFill=0;exitX=1;exitY=0.5;exitDx=0;exitDy=0;" parent="1" source="mLG4oxGB4V9aVwgX2wfx-15" target="2gdoB9V7-eAWrZrWWVSR-11" edge="1">
          <mxGeometry relative="1" as="geometry" />
        </mxCell>
        <mxCell id="2gdoB9V7-eAWrZrWWVSR-11" value="stato approvazione" style="text;html=1;align=left;verticalAlign=middle;whiteSpace=wrap;rounded=0;spacingLeft=4;" parent="1" vertex="1">
          <mxGeometry x="717" y="-645" width="110" height="30" as="geometry" />
        </mxCell>
        <mxCell id="2gdoB9V7-eAWrZrWWVSR-16" value="ottengono" style="rhombus;whiteSpace=wrap;html=1;" parent="1" vertex="1">
          <mxGeometry x="940" y="-540" width="80" height="80" as="geometry" />
        </mxCell>
        <mxCell id="2gdoB9V7-eAWrZrWWVSR-29" style="edgeStyle=orthogonalEdgeStyle;rounded=0;orthogonalLoop=1;jettySize=auto;html=1;entryX=0.75;entryY=1;entryDx=0;entryDy=0;endArrow=none;startFill=0;exitX=0.5;exitY=0;exitDx=0;exitDy=0;" parent="1" source="2gdoB9V7-eAWrZrWWVSR-27" target="x2zab3pYVwAR0wrfxQrk-21" edge="1">
          <mxGeometry relative="1" as="geometry">
            <Array as="points">
              <mxPoint x="1040" y="-320" />
              <mxPoint x="1040" y="-400" />
              <mxPoint x="690" y="-400" />
            </Array>
          </mxGeometry>
        </mxCell>
        <mxCell id="2gdoB9V7-eAWrZrWWVSR-30" value="(1,1)" style="edgeLabel;html=1;align=center;verticalAlign=middle;resizable=0;points=[];" parent="2gdoB9V7-eAWrZrWWVSR-29" vertex="1" connectable="0">
          <mxGeometry x="0.5291" relative="1" as="geometry">
            <mxPoint as="offset" />
          </mxGeometry>
        </mxCell>
        <mxCell id="2gdoB9V7-eAWrZrWWVSR-27" value="appartengono" style="rhombus;whiteSpace=wrap;html=1;" parent="1" vertex="1">
          <mxGeometry x="1000" y="-310" width="80" height="80" as="geometry" />
        </mxCell>
        <mxCell id="2gdoB9V7-eAWrZrWWVSR-35" value="" style="endArrow=oval;html=1;rounded=0;endFill=1;" parent="1" edge="1">
          <mxGeometry width="50" height="50" relative="1" as="geometry">
            <mxPoint x="590" y="-200" as="sourcePoint" />
            <mxPoint x="590" y="-450" as="targetPoint" />
            <Array as="points">
              <mxPoint x="590" y="-240" />
              <mxPoint x="590" y="-450" />
            </Array>
          </mxGeometry>
        </mxCell>
        <mxCell id="2gdoB9V7-eAWrZrWWVSR-36" value="" style="endArrow=oval;html=1;rounded=0;endFill=1;" parent="1" edge="1">
          <mxGeometry width="50" height="50" relative="1" as="geometry">
            <mxPoint x="877.5" y="-111" as="sourcePoint" />
            <mxPoint x="550" y="-434" as="targetPoint" />
            <Array as="points">
              <mxPoint x="1097.5" y="-111" />
              <mxPoint x="1100" y="-434" />
            </Array>
          </mxGeometry>
        </mxCell>
        <mxCell id="2gdoB9V7-eAWrZrWWVSR-44" style="edgeStyle=orthogonalEdgeStyle;rounded=0;orthogonalLoop=1;jettySize=auto;html=1;exitX=1;exitY=0.5;exitDx=0;exitDy=0;endArrow=oval;endFill=0;entryX=0;entryY=0.5;entryDx=0;entryDy=0;" parent="1" source="FfVXFCaMh1slwa6Uivpq-3" target="2gdoB9V7-eAWrZrWWVSR-43" edge="1">
          <mxGeometry relative="1" as="geometry" />
        </mxCell>
        <mxCell id="2gdoB9V7-eAWrZrWWVSR-43" value="nome gruppo (0,1)" style="text;html=1;align=left;verticalAlign=middle;whiteSpace=wrap;rounded=0;spacingLeft=4;" parent="1" vertex="1">
          <mxGeometry x="280" y="-261" width="120" height="30" as="geometry" />
        </mxCell>
        <mxCell id="cxJsL-db2brMdicKzbcP-2" style="edgeStyle=orthogonalEdgeStyle;rounded=0;orthogonalLoop=1;jettySize=auto;html=1;exitX=1;exitY=0.5;exitDx=0;exitDy=0;endArrow=oval;endFill=1;entryX=0;entryY=0.5;entryDx=0;entryDy=0;" parent="1" source="FfVXFCaMh1slwa6Uivpq-3" target="cxJsL-db2brMdicKzbcP-1" edge="1">
          <mxGeometry relative="1" as="geometry" />
        </mxCell>
        <mxCell id="cxJsL-db2brMdicKzbcP-1" value="codArtista" style="text;html=1;align=left;verticalAlign=middle;whiteSpace=wrap;rounded=0;spacingLeft=4;" parent="1" vertex="1">
          <mxGeometry x="280" y="-281" width="80" height="30" as="geometry" />
        </mxCell>
        <mxCell id="89L6vlJRsrO2bbDqPY7p-5" style="edgeStyle=orthogonalEdgeStyle;rounded=0;orthogonalLoop=1;jettySize=auto;html=1;exitX=1;exitY=0.5;exitDx=0;exitDy=0;endArrow=oval;endFill=0;" edge="1" parent="1" source="FfVXFCaMh1slwa6Uivpq-3" target="89L6vlJRsrO2bbDqPY7p-1">
          <mxGeometry relative="1" as="geometry" />
        </mxCell>
        <mxCell id="89L6vlJRsrO2bbDqPY7p-1" value="biografia (0,1)" style="text;html=1;align=left;verticalAlign=middle;whiteSpace=wrap;rounded=0;spacingLeft=4;" vertex="1" parent="1">
          <mxGeometry x="280" y="-150" width="90" height="30" as="geometry" />
        </mxCell>
        <mxCell id="89L6vlJRsrO2bbDqPY7p-9" style="edgeStyle=orthogonalEdgeStyle;rounded=0;orthogonalLoop=1;jettySize=auto;html=1;exitX=1;exitY=0.5;exitDx=0;exitDy=0;endArrow=oval;endFill=0;" edge="1" parent="1" source="FfVXFCaMh1slwa6Uivpq-3" target="89L6vlJRsrO2bbDqPY7p-2">
          <mxGeometry relative="1" as="geometry" />
        </mxCell>
        <mxCell id="89L6vlJRsrO2bbDqPY7p-2" value="genere musicale (0,1)" style="text;html=1;align=left;verticalAlign=middle;whiteSpace=wrap;rounded=0;spacingLeft=4;" vertex="1" parent="1">
          <mxGeometry x="280" y="-132" width="140" height="30" as="geometry" />
        </mxCell>
        <mxCell id="89L6vlJRsrO2bbDqPY7p-11" style="edgeStyle=orthogonalEdgeStyle;rounded=0;orthogonalLoop=1;jettySize=auto;html=1;endArrow=oval;endFill=0;exitX=1;exitY=0.5;exitDx=0;exitDy=0;entryX=0;entryY=0.5;entryDx=0;entryDy=0;" edge="1" parent="1" source="FfVXFCaMh1slwa6Uivpq-3" target="89L6vlJRsrO2bbDqPY7p-3">
          <mxGeometry relative="1" as="geometry" />
        </mxCell>
        <mxCell id="89L6vlJRsrO2bbDqPY7p-3" value="edizioni passate (0,1)" style="text;html=1;align=left;verticalAlign=middle;whiteSpace=wrap;rounded=0;spacingLeft=4;" vertex="1" parent="1">
          <mxGeometry x="280" y="-110" width="160" height="30" as="geometry" />
        </mxCell>
        <mxCell id="89L6vlJRsrO2bbDqPY7p-12" style="edgeStyle=orthogonalEdgeStyle;rounded=0;orthogonalLoop=1;jettySize=auto;html=1;exitX=1;exitY=0.5;exitDx=0;exitDy=0;endArrow=oval;endFill=0;entryX=0;entryY=0.5;entryDx=0;entryDy=0;" edge="1" parent="1" source="FfVXFCaMh1slwa6Uivpq-3" target="89L6vlJRsrO2bbDqPY7p-4">
          <mxGeometry relative="1" as="geometry" />
        </mxCell>
        <mxCell id="89L6vlJRsrO2bbDqPY7p-4" value="costo in baudi (0,1)" style="text;html=1;align=left;verticalAlign=middle;whiteSpace=wrap;rounded=0;spacingLeft=4;" vertex="1" parent="1">
          <mxGeometry x="280" y="-90" width="110" height="30" as="geometry" />
        </mxCell>
        <mxCell id="89L6vlJRsrO2bbDqPY7p-8" style="edgeStyle=orthogonalEdgeStyle;rounded=0;orthogonalLoop=1;jettySize=auto;html=1;exitX=1;exitY=0.5;exitDx=0;exitDy=0;endArrow=oval;endFill=0;entryX=0;entryY=0.5;entryDx=0;entryDy=0;" edge="1" parent="1" source="FfVXFCaMh1slwa6Uivpq-3" target="89L6vlJRsrO2bbDqPY7p-7">
          <mxGeometry relative="1" as="geometry" />
        </mxCell>
        <mxCell id="89L6vlJRsrO2bbDqPY7p-7" value="tipo(0,1)" style="text;html=1;align=left;verticalAlign=middle;whiteSpace=wrap;rounded=0;spacingLeft=4;" vertex="1" parent="1">
          <mxGeometry x="280" y="-170" width="90" height="30" as="geometry" />
        </mxCell>
      </root>
    </mxGraphModel>
  </diagram>
</mxfile>
